<svg xmlns="http://www.w3.org/2000/svg" viewBox="0 0 25 25" class=" h-8 w-8 lg:h-9 lg:w-9"><g fill="none"><path fill="#FFBA57" d="M16.463 13.415c2.897-2.185 5.997-2.897 7.927.61 0 5.487.712 10.365-4.268 10.365-1.22-1.829-.61-2.439-1.83-2.439-1.219 0-1.407 1.07-4.877 1.22-2.086.09-4.878-.61-7.317-2.44C4.394 19.455 1.22 16.464.61 15.245c-.239-.476.23-2.86 1.462-5.612C3.937 5.47 5.468 3.74 6.592 2.44 8.324.685 9.756 0 10.366 0c.61 0 4.283.616 4.878 1.22.61.61.467.93.61 1.829.144.898-.146 1.263-.448 1.815-.105.19-.438.57-.73.318-.167.295-.814.484-1.054.074-.23.38-.877.211-1.023-.061-.23.36-.73-.042-.887-.2a2.093 2.093 0 01-.354-.466c-.021-.022-.295-.71-.003-.775-.616.136-.866 0-1.299.44-.433.438-1.586 1.45-1.52 3.477.076 2.317-.61 3.915-1.219 4.525h1.22c1.6-1.182 4.268-2.44 7.926 1.219z"></path><path fill="#F9A825" d="M24.39 14.024c-1.93-3.506-5.03-2.794-7.927-.61 0 0 1.271 2.008 1.88 5.057.61-3.049 2.998-5.056 6.047-4.447zm-10.594-2.565l-.008-.012c-2.253-1.03-4.033-.151-5.251.748h-1.22s0 5.488 6.174 7.393c0 0-4.853-2.92-3.125-6.173 1.22-2.44 2.82-1.956 3.43-1.956z"></path><path fill="#F9A825" d="M19.436 15.625l-1.143-.381s-.402-.578 0 1.83c.457 2.743-1.144 4.725-5.03 4.801 0 0-4.236-.138-9.785-3.714 1.173.994 1.82 1.97 2.62 2.57 2.439 1.83 5.231 2.53 7.317 2.44 3.47-.15 3.658-1.22 4.878-1.22 1.22 0 .61.61 1.829 2.44 1.223 0 2.121-.258 2.754-.84-1.073-4.079-4.878-4.617-3.44-7.926z"></path><path fill="#F9A825" d="M6.098 20.732a12.524 12.524 0 002.742 1.556c1.175.086 2.49 0 3.965-.337-4.42-.762-6.357-3.71-7.94-5.202-3.485-3.285-1.664-5.145.013-9.127C6.201 4.48 6.666 2.528 7.865 1.288a13.68 13.68 0 00-.553.47c-.024.021-.046.038-.07.06-.21.19-.427.396-.65.621-1.124 1.3-2.655 3.03-4.52 7.193C.84 12.384.372 14.768.61 15.244c.61 1.22 3.784 4.21 5.488 5.488z"></path></g></svg>